#!OML:ASF F:\twosubjects\two\Thursday\Session 1\justin.ASF
:FULLY-SPECIFIED
:DEGREES
357
root 7.0724 9.52606 -18.0211 -24.7406 -0.662872 1.06808
lowerback 36.703 2.69339 -2.31096
upperback 12.3147 2.65901 1.22403
thorax -4.701 1.19595 1.55491
lowerneck -23.3298 -4.54874 -10.5132
upperneck 10.2031 -4.0475 7.36877
head 7.25625 -1.67211 3.6189
rclavicle -2.08724e-015 7.95139e-015
rhumerus 20.4644 23.357 -75.9032
rradius 77.5599
rwrist 14.9038
rhand -9.56063 15.3997
rfingers 7.12502
rthumb 16.4067 -13.9264
lclavicle -2.08724e-015 7.95139e-015
lhumerus 21.2753 -27.7729 78.2993
lradius 64.151
lwrist -31.9469
lhand -35.3626 45.7076
lfingers 7.12502
lthumb -8.49469 75.5168
rfemur -67.6576 -20.2408 4.34211
rtibia 100.122
rfoot -5.73987 -2.2628
rtoes -1.8529
lfemur -63.4907 20.172 0.812996
ltibia 95.6797
lfoot -8.35355 -16.4742
ltoes -21.8966
358
root 7.07385 9.52704 -18.0234 -24.7967 -0.755238 0.872991
lowerback 36.7503 2.65173 -2.07169
upperback 12.3483 2.69074 1.25614
thorax -4.67571 1.21559 1.4526
lowerneck -23.3364 -4.5805 -10.5956
upperneck 10.1449 -4.0786 7.4721
head 7.24529 -1.6799 3.6626
rclavicle -4.47266e-015 3.77691e-015
rhumerus 20.4123 23.2302 -75.9943
rradius 77.5793
rwrist 15.0296
rhand -9.57584 15.41
rfingers 7.12502
rthumb 16.3921 -13.9173
lclavicle -4.47266e-015 3.77691e-015
lhumerus 21.3474 -27.8564 78.2859
lradius 64.1019
lwrist -32.0421
lhand -35.4568 45.7244
lfingers 7.12502
lthumb -8.58562 75.5298
rfemur -67.5702 -20.2204 4.58975
rtibia 100.112
rfoot -5.81341 -2.29672
rtoes -2.47788
lfemur -63.4123 20.2267 1.07538
ltibia 95.6665
lfoot -8.3017 -16.5079
ltoes -21.4969
359
root 7.07432 9.52468 -18.0204 -24.7578 -0.745359 0.910311
lowerback 36.6498 2.65072 -2.13004
upperback 12.3767 2.67044 1.23942
thorax -4.61095 1.20445 1.47573
lowerneck -23.3449 -4.57939 -10.6022
upperneck 10.0861 -4.07352 7.48341
head 7.22708 -1.67601 3.66772
rclavicle 1.39149e-015 -7.55382e-015
rhumerus 20.3498 23.2141 -76.1073
rradius 77.6473
rwrist 15.0556
rhand -9.57795 15.5061
rfingers 7.12502
rthumb 16.39 -13.8214
lclavicle 1.39149e-015 -7.55382e-015
lhumerus 21.3747 -27.8533 78.2769
lradius 64.0866
lwrist -32.1105
lhand -35.5481 45.7514
lfingers 7.12502
lthumb -8.67371 75.5532
rfemur -67.6503 -20.2705 4.57774
rtibia 100.125
rfoot -5.9688 -2.38409
rtoes -1.5531
lfemur -63.4168 20.2379 1.02746
ltibia 95.6043
lfoot -7.92391 -16.4967
ltoes -19.6072
360
root 7.07438 9.52162 -18.0187 -24.7403 -0.755896 0.896955
lowerback 36.6952 2.66227 -2.14651
upperback 12.3339 2.67958 1.26203
thorax -4.67525 1.2081 1.50271
lowerneck -23.3015 -4.5752 -10.6196
upperneck 10.0317 -4.06389 7.47727
head 7.20151 -1.6731 3.66949
rclavicle 1.799e-014 -9.14409e-015
rhumerus 20.2342 23.2041 -76.1872
rradius 77.6971
rwrist 15.2033
rhand -9.55512 15.5668
rfingers 7.12502
rthumb 16.412 -13.7589
lclavicle 1.799e-014 -9.14409e-015
lhumerus 21.3714 -27.8834 78.2084
lradius 64.0805
lwrist -32.1364
lhand -35.6763 46.272
lfingers 7.12502
lthumb -8.7974 76.0687
rfemur -67.6977 -20.2739 4.58751
rtibia 100.139
rfoot -6.07544 -2.49978
rtoes 0.270961
lfemur -63.399 20.2463 1.04599
ltibia 95.5565
lfoot -7.73508 -16.5093
ltoes -18.8122
361
root 7.07346 9.52259 -18.0237 -24.8312 -0.809216 0.83703
lowerback 36.8896 2.68274 -2.13731
upperback 12.2966 2.70632 1.31251
thorax -4.78496 1.21945 1.53573
lowerneck -23.2503 -4.55291 -10.604
upperneck 9.963 -4.03246 7.42285
head 7.16595 -1.66301 3.65243
rclavicle -3.97569e-015 -1.05356e-014
rhumerus 20.2328 23.2106 -76.1676
rradius 77.6595
rwrist 15.199
rhand -9.50866 15.539
rfingers 7.12502
rthumb 16.4568 -13.783
lclavicle -3.97569e-015 -1.05356e-014
lhumerus 21.4023 -27.9148 78.1123
lradius 64.0661
lwrist -32.1329
lhand -35.6473 46.8699
lfingers 7.12502
lthumb -8.76942 76.6677
rfemur -67.5819 -20.1649 4.64451
rtibia 100.09
rfoot -6.027 -2.5794
rtoes 0.372172
lfemur -63.3542 20.2839 1.16681
ltibia 95.605
lfoot -7.99894 -16.6107
ltoes -20.132
362
root 7.07317 9.52234 -18.025 -24.8258 -0.736354 1.01093
lowerback 36.869 2.70962 -2.35559
upperback 12.3378 2.66111 1.27355
thorax -4.73554 1.19277 1.62571
lowerneck -23.3962 -4.53229 -10.6179
upperneck 9.96829 -3.98822 7.44588
head 7.18738 -1.63742 3.66792
rclavicle -1.25234e-014 1.37161e-014
rhumerus 20.3562 23.2124 -76.1732
rradius 77.6425
rwrist 15.0841
rhand -9.36381 15.5494
rfingers 7.12502
rthumb 16.5962 -13.761
lclavicle -1.25234e-014 1.37161e-014
lhumerus 21.4883 -27.8716 78.0749
lradius 64.0497
lwrist -32.1302
lhand -35.549 47.0048
lfingers 7.12502
lthumb -8.67462 76.8066
rfemur -67.6176 -20.2075 4.46048
rtibia 100.078
rfoot -5.94913 -2.5368
rtoes -0.0702543
lfemur -63.4316 20.2966 0.942455
ltibia 95.669
lfoot -8.11238 -16.676
ltoes -20.4689
363
root 7.07589 9.52146 -18.0233 -24.7332 -0.546534 1.37963
lowerback 36.6975 2.76298 -2.74175
upperback 12.3973 2.59449 1.19897
thorax -4.61681 1.15284 1.77718
lowerneck -23.5829 -4.5507 -10.7274
upperneck 9.98395 -3.97585 7.5508
head 7.22563 -1.62247 3.7223
rclavicle -8.24956e-015 -1.39149e-015
rhumerus 20.5359 23.2539 -76.0601
rradius 77.5773
rwrist 15.0447
rhand -9.39196 15.6039
rfingers 7.12502
rthumb 16.5691 -13.7088
lclavicle -8.24956e-015 -1.39149e-015
lhumerus 21.5673 -27.8252 78.1141
lradius 64.0565
lwrist -32.0678
lhand -35.5297 47.1429
lfingers 7.12502
lthumb -8.65593 76.9455
rfemur -67.7738 -20.4192 4.02724
rtibia 100.115
rfoot -5.8278 -2.2905
rtoes -0.618038
lfemur -63.5412 20.2156 0.406752
ltibia 95.6879
lfoot -8.06756 -16.5859
ltoes -20.0191
364
root 7.07726 9.52149 -18.0226 -24.6975 -0.496374 1.43201
lowerback 36.6256 2.76975 -2.82622
upperback 12.4071 2.57773 1.21171
thorax -4.5841 1.14203 1.84241
lowerneck -23.6736 -4.57072 -10.7654
upperneck 10.0543 -3.98784 7.5761
head 7.26579 -1.62618 3.73562
rclavicle 1.0138e-014 -1.49089e-014
rhumerus 20.6026 23.3394 -75.9612
rradius 77.5104
rwrist 14.9637
rhand -9.58367 15.6587
rfingers 7.12502
rthumb 16.3845 -13.6693
lclavicle 1.0138e-014 -1.49089e-014
lhumerus 21.579 -27.8127 78.0975
lradius 64.0861
lwrist -31.9849
lhand -35.4433 47.2289
lfingers 7.12502
lthumb -8.57257 77.0349
rfemur -67.8078 -20.5127 3.95769
rtibia 100.137
rfoot -5.80427 -2.20802
rtoes -1.11367
lfemur -63.5904 20.1893 0.296267
ltibia 95.6965
lfoot -8.191 -16.5128
ltoes -20.6873
365
root 7.07751 9.51981 -18.0216 -24.6699 -0.575683 1.26771
lowerback 36.5894 2.7313 -2.68622
upperback 12.3969 2.58162 1.25095
thorax -4.58168 1.14596 1.81027
lowerneck -23.7965 -4.58703 -10.7752
upperneck 10.2117 -4.0031 7.59682
head 7.33963 -1.63084 3.74302
rclavicle -1.09332e-014 -2.38542e-015
rhumerus 20.5758 23.4213 -75.986
rradius 77.5377
rwrist 14.877
rhand -9.66696 15.6998
rfingers 7.12502
rthumb 16.3043 -13.6348
lclavicle -1.09332e-014 -2.38542e-015
lhumerus 21.5798 -27.8098 78.0028
lradius 64.0686
lwrist -32.0092
lhand -35.3819 46.9635
lfingers 7.12502
lthumb -8.51333 76.7719
rfemur -67.826 -20.4539 4.17058
rtibia 100.138
rfoot -5.85585 -2.31739
rtoes -1.26653
lfemur -63.6468 20.2636 0.495121
ltibia 95.7084
lfoot -8.27601 -16.5463
ltoes -21.3807
366
root 7.07774 9.5205 -18.0221 -24.696 -0.560919 1.25658
lowerback 36.6039 2.74087 -2.64989
upperback 12.3566 2.60577 1.24487
thorax -4.63056 1.15996 1.77522
lowerneck -23.7079 -4.64523 -10.8926
upperneck 10.2815 -4.08796 7.77829
head 7.36444 -1.66111 3.81314
rclavicle -8.74653e-015 6.16232e-015
rhumerus 20.4435 23.3879 -76.0059
rradius 77.54
rwrist 14.9599
rhand -9.63069 15.6222
rfingers 7.12502
rthumb 16.3393 -13.7095
lclavicle -8.74653e-015 6.16232e-015
lhumerus 21.4958 -27.9242 78.0366
lradius 64.026
lwrist -32.0314
lhand -35.4523 46.7997
lfingers 7.12502
lthumb -8.58124 76.6053
rfemur -67.807 -20.4519 4.16084
rtibia 100.138
rfoot -5.86939 -2.33765
rtoes -1.4389
lfemur -63.6408 20.2353 0.506415
ltibia 95.7109
lfoot -8.15488 -16.5723
ltoes -20.8651
367
root 7.07679 9.52259 -18.0211 -24.7729 -0.540516 1.20206
lowerback 36.6598 2.73869 -2.57098
upperback 12.3254 2.62983 1.25061
thorax -4.68267 1.17443 1.7296
lowerneck -23.563 -4.69884 -11.0037
upperneck 10.3004 -4.1723 7.95469
head 7.36336 -1.69216 3.8804
rclavicle -1.94809e-014 -1.59028e-015
rhumerus 20.3213 23.3074 -76.0495
rradius 77.472
rwrist 14.9746
rhand -9.55371 15.518
rfingers 7.12502
rthumb 16.4134 -13.8076
lclavicle -1.94809e-014 -1.59028e-015
lhumerus 21.4051 -28.0165 78.149
lradius 63.9795
lwrist -32.0575
lhand -35.5048 46.7293
lfingers 7.12502
lthumb -8.63192 76.5328
rfemur -67.7111 -20.4945 4.16846
rtibia 100.171
rfoot -5.95764 -2.29251
rtoes -1.46632
lfemur -63.5558 20.2026 0.571367
ltibia 95.7041
lfoot -8.1018 -16.5928
ltoes -20.4394
